<?xml version="1.0" standalone="no"?>
<!DOCTYPE svg PUBLIC "-//W3C//DTD SVG 20010904//EN"
 "http://www.w3.org/TR/2001/REC-SVG-20010904/DTD/svg10.dtd">
<svg version="1.0" xmlns="http://www.w3.org/2000/svg"
 width="100.000000pt" height="100.000000pt" viewBox="0 0 1280.000000 640.000000"
 preserveAspectRatio="xMidYMid meet">
<metadata>
Created by potrace 1.15, written by Peter Selinger 2001-2017
</metadata>
<g transform="translate(0.000000,640.000000) scale(0.100000,-0.100000)"
fill="grey" stroke="none">
<path d="M2545 6300 c-212 -24 -377 -70 -550 -155 -223 -108 -396 -256 -518
-442 -33 -51 -64 -93 -67 -93 -3 0 -54 24 -113 54 -163 83 -275 102 -422 71
-204 -43 -379 -203 -474 -433 -72 -173 -97 -379 -68 -547 l16 -89 -58 -61
c-173 -181 -269 -417 -287 -706 -8 -128 18 -265 69 -373 45 -95 141 -213 221
-272 36 -27 66 -52 66 -55 0 -3 -10 -10 -23 -16 -42 -19 -175 -153 -215 -216
-107 -170 -145 -382 -107 -603 38 -221 135 -422 277 -570 l58 -60 -15 -85
c-60 -338 85 -724 336 -895 196 -133 382 -137 628 -14 64 32 116 58 117 57 0
-1 27 -42 58 -92 70 -108 238 -279 343 -348 235 -156 566 -259 847 -266 106
-3 277 15 395 41 395 85 748 333 923 647 l17 31 124 -64 c76 -39 153 -70 195
-80 192 -44 363 3 511 140 219 203 331 542 276 833 l-16 82 65 70 c36 39 81
95 101 125 119 179 208 495 191 677 -8 90 -33 200 -58 260 -12 26 -19 49 -17
51 11 10 3537 26 4316 20 l893 -7 2 -861 3 -861 323 -3 322 -2 0 150 0 150
-60 0 -60 0 0 113 0 114 -146 6 c-80 3 -148 8 -150 10 -10 10 -16 199 -9 271
l7 76 149 0 149 0 0 120 0 119 -152 3 -153 3 0 175 0 175 153 3 152 3 0 114 0
115 350 0 350 0 0 -115 0 -115 130 0 130 0 0 -180 0 -180 -130 0 -130 0 0
-120 0 -120 130 0 130 0 -2 -178 -3 -177 -127 -3 -128 -3 0 -114 0 -115 -69 0
-69 0 -4 -58 c-2 -31 -2 -99 1 -149 l3 -93 334 0 334 0 0 860 0 860 230 0 230
0 0 295 0 295 -3716 0 c-3535 0 -3716 1 -3709 18 29 69 57 179 66 262 10 88 9
111 -11 227 -48 277 -124 441 -278 605 l-64 67 13 58 c19 85 16 293 -6 373
-63 237 -173 429 -301 522 -207 151 -419 157 -680 18 l-112 -59 -58 91 c-72
114 -217 266 -331 347 -169 121 -397 213 -618 251 -134 23 -340 32 -450 20z
m275 -621 c106 -13 175 -32 267 -74 209 -96 364 -243 454 -430 38 -77 84 -230
74 -245 -2 -4 -40 -10 -83 -13 -84 -7 -276 -45 -357 -72 -208 -69 -375 -218
-448 -398 l-24 -59 -18 49 c-46 121 -160 258 -274 327 -123 75 -364 142 -554
153 l-99 6 7 46 c11 75 52 185 97 262 87 146 267 305 422 374 157 70 355 97
536 74z m-1580 -66 c30 -8 76 -26 102 -39 l48 -24 -21 -52 c-44 -112 -62 -216
-62 -358 0 -74 5 -157 11 -185 6 -27 9 -51 8 -52 -1 -1 -29 5 -61 15 -44 12
-99 16 -205 16 -164 0 -213 -10 -407 -87 -109 -43 -112 -44 -117 -23 -12 43
-5 174 13 262 34 166 95 285 202 394 135 138 304 184 489 133z m3270 -11 c175
-69 321 -259 370 -480 17 -77 29 -312 16 -312 -2 0 -56 20 -119 45 -176 69
-229 79 -397 79 -140 -1 -205 -12 -294 -49 -13 -6 -17 -5 -12 3 3 6 13 59 22
119 21 151 6 299 -48 462 -20 63 -20 65 -2 79 26 20 100 53 154 68 70 21 242
12 310 -14z m-2570 -813 c178 -41 295 -102 386 -202 110 -120 146 -218 148
-394 1 -67 -2 -125 -6 -129 -19 -19 -239 46 -373 111 -85 40 -139 95 -216 220
-63 102 -104 209 -118 308 -17 124 -20 119 42 111 28 -3 90 -15 137 -25z
m1681 -32 c-8 -180 -114 -393 -263 -533 -53 -50 -81 -66 -159 -96 -106 -40
-245 -75 -256 -64 -13 13 -15 133 -4 215 18 139 81 254 193 355 72 65 149 105
263 137 87 24 217 48 224 42 3 -2 4 -27 2 -56z m-2663 18 c153 -48 275 -152
343 -291 21 -44 39 -85 39 -91 0 -16 -42 -23 -185 -30 -223 -10 -356 30 -471
143 -52 50 -124 177 -124 217 0 13 88 59 135 70 61 15 187 6 263 -18z m3870
-9 c62 -32 62 -35 10 -146 -87 -183 -277 -269 -563 -257 -141 6 -165 11 -165
35 0 8 16 49 36 90 66 137 206 250 364 294 48 13 91 17 165 15 86 -3 107 -7
153 -31z m385 -341 c28 -44 68 -120 89 -170 31 -75 37 -102 38 -160 1 -246
-179 -479 -420 -545 -66 -19 -233 -16 -310 4 -89 23 -199 76 -269 130 -97 75
-196 224 -234 353 -18 61 -32 201 -23 236 l6 24 112 -20 c153 -26 367 -28 463
-3 159 41 291 139 365 269 l33 59 49 -49 c27 -26 72 -84 101 -128z m-4799 107
c75 -124 204 -219 347 -256 129 -33 359 -29 526 10 36 8 67 13 70 10 11 -11 2
-186 -12 -241 -58 -219 -236 -415 -441 -484 -391 -131 -754 92 -799 491 -10
92 35 219 130 363 47 71 126 165 139 165 2 0 20 -26 40 -58z m3255 -576 c47
-182 128 -332 268 -493 l63 -72 -25 -19 c-13 -10 -61 -32 -107 -47 -70 -24
-99 -29 -188 -29 -182 0 -304 57 -465 219 -112 112 -192 234 -226 345 -11 36
-22 72 -25 81 -3 13 9 20 63 33 151 38 371 136 538 238 l70 43 6 -105 c3 -58
16 -145 28 -194z m-1635 153 c144 -74 245 -113 341 -134 l73 -17 -15 -51 c-59
-201 -231 -427 -404 -530 -147 -87 -326 -107 -484 -53 -44 15 -88 34 -99 41
-18 13 -15 18 40 75 191 199 301 437 320 693 l7 96 51 -30 c28 -17 105 -57
170 -90z m771 -443 c76 -151 235 -330 377 -426 l57 -38 -57 -38 c-85 -58 -234
-206 -292 -290 -60 -87 -141 -252 -166 -339 l-18 -61 -28 85 c-42 125 -99 237
-166 327 -69 93 -203 223 -285 277 l-57 38 62 42 c86 56 234 206 298 301 60
90 118 209 151 309 l22 69 32 -90 c18 -50 50 -124 70 -166z m1366 -396 c50
-33 95 -60 100 -60 5 0 9 -4 9 -10 0 -5 -4 -10 -10 -10 -5 0 -52 -27 -104 -60
l-94 -61 -82 60 c-45 33 -87 62 -94 65 -7 4 -4 10 8 18 10 7 51 36 90 65 39
29 74 52 78 53 4 0 49 -27 99 -60z m-2679 -49 c32 -19 35 -27 11 -35 -10 -3
-47 -28 -82 -54 l-64 -49 -99 60 -99 60 45 23 c25 13 69 39 97 58 l52 35 56
-40 c31 -23 68 -48 83 -58z m378 -132 c112 -31 202 -83 295 -171 122 -116 210
-250 261 -402 28 -83 28 -76 7 -76 -38 0 -154 -35 -248 -75 -90 -39 -333 -164
-361 -186 -8 -6 -13 18 -17 81 -17 236 -121 482 -276 654 -36 39 -74 81 -85
93 l-19 23 58 26 c128 59 254 70 385 33z m1932 10 c49 -10 153 -54 187 -77 11
-8 3 -23 -43 -74 -189 -207 -289 -435 -303 -694 l-6 -112 -61 40 c-143 93
-457 230 -581 254 -40 7 -40 8 2 123 42 116 110 217 223 331 88 89 119 113
191 149 47 24 110 49 140 56 68 17 182 18 251 4z m-2968 -249 c252 -64 443
-250 508 -494 17 -66 25 -207 12 -239 -4 -12 -14 -12 -67 -2 -195 40 -404 44
-531 10 -140 -39 -250 -117 -327 -234 l-54 -81 -43 43 c-85 82 -197 279 -222
391 -20 91 19 262 85 366 82 130 228 228 375 253 69 12 192 6 264 -13z m4091
-5 c160 -42 278 -139 353 -289 71 -142 81 -270 32 -393 -49 -123 -140 -262
-217 -336 l-30 -28 -39 67 c-73 125 -203 221 -349 259 -127 33 -365 29 -529
-9 l-56 -13 -6 31 c-10 56 13 209 44 288 83 215 275 384 493 433 76 17 216 12
304 -10z m-2450 -664 c-12 -196 -102 -357 -252 -457 -71 -47 -240 -107 -358
-127 -122 -21 -123 -20 -101 107 37 220 173 440 321 518 81 42 223 93 315 112
l65 13 8 -36 c5 -20 6 -79 2 -130z m651 118 c55 -17 119 -42 144 -54 50 -25
158 -133 209 -208 79 -116 141 -294 141 -405 l0 -48 -92 14 c-51 7 -127 25
-168 38 -267 88 -430 315 -430 599 0 102 4 109 55 102 23 -4 87 -20 141 -38z
m1289 -259 c212 -24 351 -110 423 -260 53 -111 53 -111 -19 -145 -56 -27 -72
-30 -163 -30 -80 0 -116 5 -175 24 -90 30 -202 101 -260 167 -43 48 -93 141
-106 196 -8 32 1 35 117 48 40 4 78 8 83 9 6 0 51 -4 100 -9z m-3098 -15 c29
-9 24 -34 -26 -130 -120 -233 -459 -363 -670 -258 -66 33 -69 48 -24 139 61
125 180 216 326 249 64 15 346 14 394 0z m1468 -176 c103 -160 257 -261 486
-318 97 -24 259 -51 306 -51 17 0 34 -4 37 -9 9 -14 -34 -170 -65 -239 -55
-122 -172 -258 -294 -342 -188 -129 -449 -196 -669 -170 -251 29 -446 125
-608 299 -111 120 -194 280 -213 412 l-7 46 94 6 c179 12 390 67 523 135 134
70 290 253 320 377 7 30 7 29 27 -25 12 -30 40 -85 63 -121z m-2095 -310 c158
-60 224 -73 370 -73 89 0 157 6 200 16 36 9 66 15 68 13 2 -2 -1 -20 -7 -41
-35 -131 -18 -353 39 -522 l29 -84 -55 -25 c-81 -37 -150 -53 -229 -53 -140 0
-245 47 -355 159 -62 62 -85 95 -127 181 -28 58 -59 134 -68 170 -19 77 -31
232 -21 284 l7 36 37 -16 c20 -9 71 -29 112 -45z m4207 -91 c-4 -119 -9 -156
-31 -221 -47 -141 -110 -242 -203 -327 -156 -143 -354 -169 -562 -74 -58 27
-72 38 -68 51 2 10 16 57 30 104 36 121 48 249 37 373 -6 55 -14 116 -20 134
-8 30 -7 33 8 27 92 -35 174 -49 292 -49 145 0 247 21 400 83 52 22 101 39
109 40 11 1 13 -24 8 -141z"/>
</g>
</svg>
